<svg width="306" height="218" viewBox="0 0 306 218" fill="none" xmlns="http://www.w3.org/2000/svg">
<path d="M147 209V7.5C121.5 -4.5 107 10 101 17C51 -15 37.5 33 35.5001 43C-16.9999 60 8.00005 100.5 17 109.5C-20.5 157.5 31.0001 176 35.5001 177.5C46.5001 222 81 219.5 101 202C119.8 219.6 139.5 214 147 209Z" fill="#0B0F14"/>
<path d="M159 208.095V6.59491C184.5 -5.40509 199 9.09491 205 16.0949C255 -15.9051 268.5 32.0949 270.5 42.0949C323 59.0949 298 99.5949 289 108.595C326.5 156.595 275 175.095 270.5 176.595C259.5 221.095 225 218.595 205 201.095C186.2 218.695 166.5 213.095 159 208.095Z" fill="#0B0F14"/>
<path d="M265.345 60.5292C269.388 52.5945 270.467 43.4775 268.389 34.8182C266.31 26.159 261.209 18.5256 254.005 13.2912C246.8 8.05672 237.964 5.56475 229.086 6.26345C220.208 6.96215 211.871 10.8057 205.574 17.1027" stroke="#E6F0FF" stroke-width="6"/>
<path d="M212.987 32.6251C211.76 26.8518 209.184 21.4508 205.47 16.8639C201.755 12.2769 197.008 8.6342 191.616 6.23351C186.224 3.83283 180.34 2.74236 174.446 3.05126C168.552 3.36016 162.814 5.05967 157.703 8.01082" stroke="#E6F0FF" stroke-width="6"/>
<path d="M276.339 116.045C284.372 113.589 291.345 108.499 296.134 101.596C300.923 94.6937 303.248 86.3798 302.735 77.9945C302.222 69.6091 298.901 61.6406 293.307 55.373C287.713 49.1053 280.171 44.9036 271.898 43.4447" stroke="#E6F0FF" stroke-width="6"/>
<path d="M269.42 173.45C269.42 182.456 266.17 191.16 260.267 197.963C254.364 204.765 246.205 209.209 237.288 210.478C228.372 211.747 219.297 209.756 211.731 204.871C204.164 199.985 198.615 192.533 196.102 183.885" stroke="#E6F0FF" stroke-width="6"/>
<path d="M252.917 171.977C261.311 174.95 270.491 174.83 278.805 171.639C287.119 168.447 294.021 162.394 298.27 154.568C302.519 146.742 303.837 137.656 301.985 128.945C300.134 120.234 295.235 112.47 288.17 107.049" stroke="#E6F0FF" stroke-width="6"/>
<path d="M157.701 208.989C165.413 213.441 174.461 214.996 183.217 213.373C191.973 211.75 199.863 207.056 205.468 200.135" stroke="#E6F0FF" stroke-width="6"/>
<path d="M159.2 5.415L159.2 211.585" stroke="#E6F0FF" stroke-width="6"/>
<line x1="166" y1="107" x2="215" y2="107" stroke="#93C5FD" stroke-width="2"/>
<line x1="185" y1="57" x2="247" y2="57" stroke="#93C5FD" stroke-width="2"/>
<line x1="167" y1="160" x2="167" y2="108" stroke="#93C5FD" stroke-width="2"/>
<path d="M168 159H178" stroke="#93C5FD" stroke-width="2"/>
<line x1="177" y1="160" x2="177" y2="174" stroke="#93C5FD" stroke-width="2"/>
<line x1="214" y1="107" x2="214" y2="58" stroke="#93C5FD" stroke-width="2"/>
<line x1="243" y1="182" x2="243" y2="140" stroke="#93C5FD" stroke-width="2"/>
<line x1="276" y1="141" x2="244" y2="141" stroke="#93C5FD" stroke-width="2"/>
<line x1="184" y1="58" x2="184" y2="39" stroke="#93C5FD" stroke-width="2"/>
<line x1="246" y1="58" x2="246" y2="46" stroke="#93C5FD" stroke-width="2"/>
<circle cx="10" cy="10" r="10" transform="matrix(-1 0 0 1 256.6 27)" fill="#3B82F6"/>
<circle cx="10" cy="10" r="10" transform="matrix(-1 0 0 1 194.6 20)" fill="#3B82F6"/>
<circle cx="10" cy="10" r="10" transform="matrix(-1 0 0 1 186.6 173)" fill="#3B82F6"/>
<circle cx="10" cy="10" r="10" transform="matrix(-1 0 0 1 253.6 180)" fill="#3B82F6"/>
<circle cx="10" cy="10" r="10" transform="matrix(-1 0 0 1 295.6 130)" fill="#3B82F6"/>
<line x1="259" y1="149.5" x2="175" y2="149.5" stroke="#E6F0FF" stroke-width="6"/>
<line y1="-3" x2="88" y2="-3" transform="matrix(0 -1 -1 0 175 152.5)" stroke="#E6F0FF" stroke-width="6"/>
<path d="M40.4592 60.5292C36.4163 52.5945 35.3372 43.4775 37.4162 34.8182C39.4951 26.159 44.5955 18.5256 51.8001 13.2912C59.0047 8.05672 67.8406 5.56475 76.7184 6.26345C85.5963 6.96215 93.9336 10.8057 100.231 17.1027" stroke="#E6F0FF" stroke-width="6"/>
<path d="M92.8173 32.6251C94.0445 26.8518 96.6206 21.4508 100.335 16.8639C104.049 12.2769 108.797 8.6342 114.189 6.23351C119.581 3.83283 125.464 2.74236 131.359 3.05126C137.253 3.36016 142.99 5.05967 148.102 8.01082" stroke="#E6F0FF" stroke-width="6"/>
<path d="M29.4662 116.045C21.4323 113.589 14.4592 108.499 9.67065 101.596C4.8821 94.6937 2.55692 86.3798 3.06979 77.9945C3.58266 69.6091 6.90371 61.6406 12.4978 55.373C18.0919 49.1053 25.6332 44.9036 33.9066 43.4447" stroke="#E6F0FF" stroke-width="6"/>
<path d="M36.3849 176.45C36.3849 185.456 39.6349 194.16 45.5377 200.963C51.4405 207.765 59.5997 212.209 68.5163 213.478C77.4328 214.747 86.5079 212.756 94.0741 207.871C101.64 202.985 107.19 195.533 109.702 186.885" stroke="#E6F0FF" stroke-width="6"/>
<path d="M52.8882 174.977C44.4937 177.95 35.3139 177.83 27 174.639C18.6862 171.447 11.7838 165.394 7.53458 157.568C3.28532 149.742 1.96798 140.656 3.81951 131.945C5.67104 123.234 10.5699 115.47 17.635 110.049" stroke="#E6F0FF" stroke-width="6"/>
<path d="M148.102 209.022C140.971 213.139 132.682 214.787 124.519 213.713C116.357 212.638 108.776 208.9 102.955 203.078" stroke="#E6F0FF" stroke-width="6"/>
<path d="M146.605 5.415V211.585" stroke="#E6F0FF" stroke-width="6"/>
<line x1="60" y1="46" x2="60" y2="54" stroke="#93C5FD" stroke-width="2"/>
<line x1="59" y1="53" x2="89" y2="53" stroke="#93C5FD" stroke-width="2"/>
<line x1="36" y1="116" x2="79" y2="116" stroke="#93C5FD" stroke-width="2"/>
<line x1="30" y1="139" x2="37" y2="139" stroke="#93C5FD" stroke-width="2"/>
<line x1="109" y1="113" x2="140" y2="113" stroke="#93C5FD" stroke-width="2"/>
<line x1="111" y1="182" x2="120" y2="182" stroke="#93C5FD" stroke-width="2"/>
<line x1="71" y1="189" x2="79" y2="189" stroke="#93C5FD" stroke-width="2"/>
<line x1="130" y1="29" x2="139" y2="29" stroke="#93C5FD" stroke-width="2"/>
<line x1="88" y1="106" x2="88" y2="54" stroke="#93C5FD" stroke-width="2"/>
<path d="M37 140L37 117" stroke="#93C5FD" stroke-width="2"/>
<line x1="78" y1="190" x2="78" y2="117" stroke="#93C5FD" stroke-width="2"/>
<line x1="110" y1="183" x2="110" y2="114" stroke="#93C5FD" stroke-width="2"/>
<line x1="139" y1="113" x2="139" y2="28" stroke="#93C5FD" stroke-width="2"/>
<circle cx="59" cy="37" r="10" fill="#3B82F6"/>
<circle cx="121" cy="30" r="10" fill="#3B82F6"/>
<circle cx="129" cy="183" r="10" fill="#3B82F6"/>
<circle cx="62" cy="190" r="10" fill="#3B82F6"/>
<circle cx="20" cy="140" r="10" fill="#3B82F6"/>
<line x1="49.6001" y1="151.5" x2="49.6001" y2="71.5" stroke="#E6F0FF" stroke-width="6"/>
<line x1="127.6" y1="151.5" x2="127.6" y2="71.5" stroke="#E6F0FF" stroke-width="6"/>
<path d="M49.1001 70.25C64.721 85.871 72.9791 94.129 88.6001 109.75C104.221 94.129 112.479 85.871 128.1 70.25" stroke="#E6F0FF" stroke-width="6"/>
<path d="M49.479 68.5L48.1001 69.8789V67.1211L49.479 68.5Z" fill="black" stroke="#E6F0FF" stroke-width="3"/>
<path d="M127.721 68.5L129.1 69.8789V67.1211L127.721 68.5Z" fill="black" stroke="#E6F0FF" stroke-width="3"/>
</svg>
