<svg width="110" height="109" viewBox="0 0 110 109" fill="none" xmlns="http://www.w3.org/2000/svg">
<circle cx="54.7215" cy="58.2459" r="25" fill="#FFF45E"/>
<path d="M33.991 80.0467C35.9161 81.8827 38.0845 83.4655 40.4432 84.742L29.9998 92.3309L33.991 80.0467ZM79.4432 92.3309L68.9988 84.742C71.3576 83.4655 73.5259 81.8827 75.451 80.0467L79.4432 92.3309ZM27.6297 45.3075C26.4892 47.6805 25.6511 50.2264 25.1658 52.8954L14.7215 45.3075H27.6297ZM94.7215 45.3075L84.2762 52.8954C83.7909 50.2265 82.9538 47.6805 81.8133 45.3075H94.7215ZM58.7108 28.5262C57.4056 28.353 56.074 28.2625 54.7215 28.2625C53.3686 28.2625 52.0368 28.353 50.7313 28.5262L54.7215 16.2459L58.7108 28.5262Z" fill="#FFF45E"/>
<path d="M53.0905 87.3124C55.7271 87.6662 58.4118 87.6721 61.0703 87.3185L57.082 99.5965L53.0905 87.3124ZM97.0826 70.5344L84.1723 70.5339C85.3302 68.1148 86.1541 65.5597 86.6323 62.9428L97.0826 70.5344ZM27.5249 62.9468C27.9971 65.5371 28.8155 68.0893 29.9916 70.5338L17.0819 70.5341L27.5249 62.9468ZM81.8033 23.5113L77.8129 35.7896C75.8516 33.9157 73.6778 32.348 71.3603 31.0985L81.8033 23.5113ZM42.8062 31.1015C41.6485 31.7286 40.5181 32.438 39.4239 33.233C38.3294 34.0282 37.305 34.8842 36.3507 35.7918L32.3607 23.5114L42.8062 31.1015Z" fill="#FFF45E"/>
</svg>
